<?xml version="1.0" encoding="utf-8"?>
<!-- Generator: Adobe Illustrator 16.0.0, SVG Export Plug-In . SVG Version: 6.00 Build 0)  -->
<!DOCTYPE svg PUBLIC "-//W3C//DTD SVG 1.1//EN" "http://www.w3.org/Graphics/SVG/1.1/DTD/svg11.dtd">
<svg version="1.1" id="Layer_1" xmlns="http://www.w3.org/2000/svg" xmlns:xlink="http://www.w3.org/1999/xlink" x="0px" y="0px"
	 width="262.957px" height="262.957px" viewBox="0 0 262.957 262.957" enable-background="new 0 0 262.957 262.957"
	 xml:space="preserve">
<path fill="#B3B8BA" d="M73.052,60.181L73.051,203.02l123.702-71.42L73.052,60.181z M111.649,131.593l-34.041,58.972L77.61,72.636
	L111.649,131.593z M114.281,131.593L114.281,131.593L114.281,131.593z M115.596,133.873l68.095,0.005L81.555,192.844
	L115.596,133.873z M115.597,129.316L81.554,70.352l102.138,58.969L115.597,129.316z"/>
<path fill="#0099F9" d="M69.666,54.328c-5.651,3.262-7.59,10.52-4.324,16.175c3.262,5.651,10.515,7.601,16.167,4.338
	c5.655-3.268,7.598-10.522,4.335-16.174C82.579,53.008,75.321,51.066,69.666,54.328"/>
<path fill="#0099F9" d="M108.354,121.336c-5.652,3.264-7.591,10.52-4.326,16.177c3.264,5.65,10.516,7.597,16.168,4.334
	c5.655-3.265,7.598-10.521,4.336-16.174C121.267,120.018,114.009,118.074,108.354,121.336"/>
<path fill="#0099F9" d="M69.481,188.12c-5.651,3.26-7.59,10.518-4.324,16.173c3.262,5.653,10.515,7.599,16.166,4.338
	c5.658-3.268,7.6-10.521,4.336-16.174C82.395,186.8,75.136,184.854,69.481,188.12"/>
<path fill="#0099F9" d="M185.625,121.064c-5.651,3.262-7.59,10.518-4.324,16.174c3.262,5.654,10.514,7.6,16.167,4.339
	c5.656-3.269,7.598-10.524,4.335-16.176C198.538,119.745,191.279,117.799,185.625,121.064"/>
<rect fill="none" width="262.957" height="262.957"/>
</svg>
